# xmcd CD database file
#
# Track frame offsets:
#	150
#	7652
#	18162
#	29867
#	41462
#	55825
#	65077
#	74567
#	86812
#	96682
#	108850
#	119415
#	132107
#	142680
#	154417
#	169515
#	179172
#
# Disc length: 2517 seconds
#
# Revision: 3
# Processed by: cddbd v1.5.2PL0 Copyright (c) Steve Scherf et al.
# Submitted via: CDex 1.70beta2
#
DISCID=ee09d311
DTITLE=Peggy Lee - Mink Jazz
DYEAR=1963
DGENRE=Jazz
TTITLE0=It's A Big Wide Wonderful World
TTITLE1=Whisper Not
TTITLE2=My Silent Love
TTITLE3=The Lady Is A Tramp
TTITLE4=Days Of Wine And Roses
TTITLE5=As Long As I Live
TTITLE6=I Won't Dance
TTITLE7=Cloudy Morning
TTITLE8=I Could Write A Book
TTITLE9=I Never Had A Chance
TTITLE10=Close Your Eyes
TTITLE11=Where Can I Go Without You
TTITLE12=I'll Get By
TTITLE13=Please Don't Rush Me
TTITLE14=I'm A Fool To Want You
TTITLE15=I Didn't Find Love
TTITLE16=Little Boat
EXTD=YEAR: 1963
EXTT0=
EXTT1=
EXTT2=
EXTT3=
EXTT4=
EXTT5=
EXTT6=
EXTT7=
EXTT8=
EXTT9=
EXTT10=
EXTT11=
EXTT12=
EXTT13=
EXTT14=
EXTT15=
EXTT16=
PLAYORDER=
